<svg width="314" height="314" viewBox="0 0 314 314" fill="none" xmlns="http://www.w3.org/2000/svg">
<circle cx="157" cy="157" r="157" fill="#FE5F55"/>
<path d="M52.6 195.6C51.2667 194.8 50.5333 193.667 50.4 192.2C50.2667 190.733 50.7333 189.133 51.8 187.4L66.2 164.4L67.8 166.6L40.4 167.4C38.4 167.4 36.8 167 35.6 166.2C34.4 165.267 33.8 164.067 33.8 162.6C33.8 161 34.4 159.8 35.6 159C36.8 158.2 38.4 157.8 40.4 157.8L67.8 158.6L66.2 160.8L51.8 137.6C50.7333 135.867 50.2667 134.267 50.4 132.8C50.6667 131.333 51.4667 130.2 52.8 129.4C54.1333 128.6 55.4667 128.6 56.8 129.4C58.1333 130.067 59.2667 131.267 60.2 133L72.8 156.2H71.2L83.6 133C84.5333 131.133 85.6667 129.867 87 129.2C88.4667 128.533 89.8667 128.6 91.2 129.4C92.5333 130.333 93.2 131.533 93.2 133C93.3333 134.333 92.8667 135.867 91.8 137.6L77.6 160.8L75.8 158.6L103.4 157.8C105.533 157.8 107.2 158.2 108.4 159C109.6 159.8 110.2 161 110.2 162.6C110.2 164.2 109.6 165.4 108.4 166.2C107.2 167 105.533 167.4 103.4 167.4L75.8 166.6L77.6 164.4L91.8 187.4C92.8667 189.133 93.3333 190.733 93.2 192.2C93.2 193.533 92.5333 194.6 91.2 195.4C89.7333 196.2 88.3333 196.267 87 195.6C85.6667 194.933 84.5333 193.733 83.6 192L71.2 168.8H72.8L60 192.2C59.0667 193.933 57.9333 195.133 56.6 195.8C55.4 196.467 54.0667 196.4 52.6 195.6ZM142.444 195.6C141.11 194.8 140.377 193.667 140.244 192.2C140.11 190.733 140.577 189.133 141.644 187.4L156.044 164.4L157.644 166.6L130.244 167.4C128.244 167.4 126.644 167 125.444 166.2C124.244 165.267 123.644 164.067 123.644 162.6C123.644 161 124.244 159.8 125.444 159C126.644 158.2 128.244 157.8 130.244 157.8L157.644 158.6L156.044 160.8L141.644 137.6C140.577 135.867 140.11 134.267 140.244 132.8C140.51 131.333 141.31 130.2 142.644 129.4C143.977 128.6 145.31 128.6 146.644 129.4C147.977 130.067 149.11 131.267 150.044 133L162.644 156.2H161.044L173.444 133C174.377 131.133 175.51 129.867 176.844 129.2C178.31 128.533 179.71 128.6 181.044 129.4C182.377 130.333 183.044 131.533 183.044 133C183.177 134.333 182.71 135.867 181.644 137.6L167.444 160.8L165.644 158.6L193.244 157.8C195.377 157.8 197.044 158.2 198.244 159C199.444 159.8 200.044 161 200.044 162.6C200.044 164.2 199.444 165.4 198.244 166.2C197.044 167 195.377 167.4 193.244 167.4L165.644 166.6L167.444 164.4L181.644 187.4C182.71 189.133 183.177 190.733 183.044 192.2C183.044 193.533 182.377 194.6 181.044 195.4C179.577 196.2 178.177 196.267 176.844 195.6C175.51 194.933 174.377 193.733 173.444 192L161.044 168.8H162.644L149.844 192.2C148.91 193.933 147.777 195.133 146.444 195.8C145.244 196.467 143.91 196.4 142.444 195.6ZM232.288 195.6C230.954 194.8 230.221 193.667 230.088 192.2C229.954 190.733 230.421 189.133 231.488 187.4L245.888 164.4L247.488 166.6L220.088 167.4C218.088 167.4 216.488 167 215.288 166.2C214.088 165.267 213.488 164.067 213.488 162.6C213.488 161 214.088 159.8 215.288 159C216.488 158.2 218.088 157.8 220.088 157.8L247.488 158.6L245.888 160.8L231.488 137.6C230.421 135.867 229.954 134.267 230.088 132.8C230.354 131.333 231.154 130.2 232.488 129.4C233.821 128.6 235.154 128.6 236.488 129.4C237.821 130.067 238.954 131.267 239.888 133L252.488 156.2H250.888L263.288 133C264.221 131.133 265.354 129.867 266.688 129.2C268.154 128.533 269.554 128.6 270.888 129.4C272.221 130.333 272.888 131.533 272.888 133C273.021 134.333 272.554 135.867 271.488 137.6L257.288 160.8L255.488 158.6L283.088 157.8C285.221 157.8 286.888 158.2 288.088 159C289.288 159.8 289.888 161 289.888 162.6C289.888 164.2 289.288 165.4 288.088 166.2C286.888 167 285.221 167.4 283.088 167.4L255.488 166.6L257.288 164.4L271.488 187.4C272.554 189.133 273.021 190.733 272.888 192.2C272.888 193.533 272.221 194.6 270.888 195.4C269.421 196.2 268.021 196.267 266.688 195.6C265.354 194.933 264.221 193.733 263.288 192L250.888 168.8H252.488L239.688 192.2C238.754 193.933 237.621 195.133 236.288 195.8C235.088 196.467 233.754 196.4 232.288 195.6Z" fill="#777777"/>
<path d="M47.6 190.6C46.2667 189.8 45.5333 188.667 45.4 187.2C45.2667 185.733 45.7333 184.133 46.8 182.4L61.2 159.4L62.8 161.6L35.4 162.4C33.4 162.4 31.8 162 30.6 161.2C29.4 160.267 28.8 159.067 28.8 157.6C28.8 156 29.4 154.8 30.6 154C31.8 153.2 33.4 152.8 35.4 152.8L62.8 153.6L61.2 155.8L46.8 132.6C45.7333 130.867 45.2667 129.267 45.4 127.8C45.6667 126.333 46.4667 125.2 47.8 124.4C49.1333 123.6 50.4667 123.6 51.8 124.4C53.1333 125.067 54.2667 126.267 55.2 128L67.8 151.2H66.2L78.6 128C79.5333 126.133 80.6667 124.867 82 124.2C83.4667 123.533 84.8667 123.6 86.2 124.4C87.5333 125.333 88.2 126.533 88.2 128C88.3333 129.333 87.8667 130.867 86.8 132.6L72.6 155.8L70.8 153.6L98.4 152.8C100.533 152.8 102.2 153.2 103.4 154C104.6 154.8 105.2 156 105.2 157.6C105.2 159.2 104.6 160.4 103.4 161.2C102.2 162 100.533 162.4 98.4 162.4L70.8 161.6L72.6 159.4L86.8 182.4C87.8667 184.133 88.3333 185.733 88.2 187.2C88.2 188.533 87.5333 189.6 86.2 190.4C84.7333 191.2 83.3333 191.267 82 190.6C80.6667 189.933 79.5333 188.733 78.6 187L66.2 163.8H67.8L55 187.2C54.0667 188.933 52.9333 190.133 51.6 190.8C50.4 191.467 49.0667 191.4 47.6 190.6ZM137.444 190.6C136.11 189.8 135.377 188.667 135.244 187.2C135.11 185.733 135.577 184.133 136.644 182.4L151.044 159.4L152.644 161.6L125.244 162.4C123.244 162.4 121.644 162 120.444 161.2C119.244 160.267 118.644 159.067 118.644 157.6C118.644 156 119.244 154.8 120.444 154C121.644 153.2 123.244 152.8 125.244 152.8L152.644 153.6L151.044 155.8L136.644 132.6C135.577 130.867 135.11 129.267 135.244 127.8C135.51 126.333 136.31 125.2 137.644 124.4C138.977 123.6 140.31 123.6 141.644 124.4C142.977 125.067 144.11 126.267 145.044 128L157.644 151.2H156.044L168.444 128C169.377 126.133 170.51 124.867 171.844 124.2C173.31 123.533 174.71 123.6 176.044 124.4C177.377 125.333 178.044 126.533 178.044 128C178.177 129.333 177.71 130.867 176.644 132.6L162.444 155.8L160.644 153.6L188.244 152.8C190.377 152.8 192.044 153.2 193.244 154C194.444 154.8 195.044 156 195.044 157.6C195.044 159.2 194.444 160.4 193.244 161.2C192.044 162 190.377 162.4 188.244 162.4L160.644 161.6L162.444 159.4L176.644 182.4C177.71 184.133 178.177 185.733 178.044 187.2C178.044 188.533 177.377 189.6 176.044 190.4C174.577 191.2 173.177 191.267 171.844 190.6C170.51 189.933 169.377 188.733 168.444 187L156.044 163.8H157.644L144.844 187.2C143.91 188.933 142.777 190.133 141.444 190.8C140.244 191.467 138.91 191.4 137.444 190.6ZM227.288 190.6C225.954 189.8 225.221 188.667 225.088 187.2C224.954 185.733 225.421 184.133 226.488 182.4L240.888 159.4L242.488 161.6L215.088 162.4C213.088 162.4 211.488 162 210.288 161.2C209.088 160.267 208.488 159.067 208.488 157.6C208.488 156 209.088 154.8 210.288 154C211.488 153.2 213.088 152.8 215.088 152.8L242.488 153.6L240.888 155.8L226.488 132.6C225.421 130.867 224.954 129.267 225.088 127.8C225.354 126.333 226.154 125.2 227.488 124.4C228.821 123.6 230.154 123.6 231.488 124.4C232.821 125.067 233.954 126.267 234.888 128L247.488 151.2H245.888L258.288 128C259.221 126.133 260.354 124.867 261.688 124.2C263.154 123.533 264.554 123.6 265.888 124.4C267.221 125.333 267.888 126.533 267.888 128C268.021 129.333 267.554 130.867 266.488 132.6L252.288 155.8L250.488 153.6L278.088 152.8C280.221 152.8 281.888 153.2 283.088 154C284.288 154.8 284.888 156 284.888 157.6C284.888 159.2 284.288 160.4 283.088 161.2C281.888 162 280.221 162.4 278.088 162.4L250.488 161.6L252.288 159.4L266.488 182.4C267.554 184.133 268.021 185.733 267.888 187.2C267.888 188.533 267.221 189.6 265.888 190.4C264.421 191.2 263.021 191.267 261.688 190.6C260.354 189.933 259.221 188.733 258.288 187L245.888 163.8H247.488L234.688 187.2C233.754 188.933 232.621 190.133 231.288 190.8C230.088 191.467 228.754 191.4 227.288 190.6Z" fill="white"/>
</svg>
